<svg xmlns="http://www.w3.org/2000/svg" viewBox="0 0 255 255" enable-background="new 0 0 255 255"><style type="text/css">.st0{fill:#BB9D6E;}</style><path class="st0" d="M45 246.6c2.9.3 5.5-1.7 6-4.5-.3 3.1 2 5.8 5.1 6.1 3.1.3 5.9-2 6.1-5.1.3-3.3 1.1-11.8 1.4-14.8h.2c20.2 1.7 42.9-13.4 47.4-45.3 1.9-13.8-1.6-27.5-10-38.7-5.7-7.6-13.2-13.3-21.7-16.8.6-1.2 1.1-2.6 1.3-4 .5-3.6-.4-7.3-2.6-10.2-2.2-2.9-5.4-4.8-9.1-5.4-6.8-1-13.3 3.3-15.2 9.9-.2.6-.3 1.2-.4 1.9-.2 1.4-.1 2.8.1 4.2-1.5.2-3 .4-4.4.7l-3.6-9.8c3.6-2.6 6.4-6.3 7.7-10.7.6-2.2.9-4.4.7-6.7l-1.6-25c-.2-2.3-.7-4.6-1.6-6.6l13.4-11c.3.2.6.4.9.5 4.7 2.3 10.1 2.7 15.1 1l23.7-8.1c6.1-2.1 10.9-7.1 12.6-13.3v-.1l11.8-.2c1.9 4.8 5.7 8.8 10.8 10.9l23.2 9.5c4.8 2 10.1 2 14.9.1l5.2 6.6c-1.1 1.7-1.9 3.5-2.5 5.4-.8 2.6-.9 5.4-.6 8.1l3.4 24.8c1 7.4 6.1 13.3 12.6 15.8l-.3 8.2c-17.4.6-34.1 9.8-43.5 25.9-3 5.1-5.1 10.2-6.5 15.1-6.2 21.8 2.1 40.7 15.8 49.8.1 0 .1.1.2.2-1.6 2.7-6.2 9.9-8 12.7-1.7 2.6-.9 6.1 1.8 7.8 2.6 1.7 6.1.9 7.8-1.8-.2.4-.4.7-.5 1.1-.7 2.4.2 5 2.4 6.3 2.6 1.7 6.1.9 7.8-1.8.7-1.1 6.3-9.9 8.2-13.1.1 0 .2 0 .2.1 18.1 9.1 44.8 3.8 61-24.1 12.2-21 8-47-8.5-63.3 1-.9 2-2 2.7-3.3.6-1 1-2 1.3-3.1 1.7-6.1-.9-12.5-6.3-15.7-6.6-3.8-15-1.6-18.8 5-.6 1-1 2-1.3 3.1-.1.3-.1.6-.2.8-1.4-.4-2.9-.7-4.3-1l.3-8.3c7-1.6 12.7-6.8 14.7-13.8.8-2.6.9-5.4.6-8.1l-3.4-24.8c-1.5-10.8-11.5-18.4-22.3-16.9-1.8.2-3.5.8-5.1 1.5l-5-6.4c.8-1.2 1.5-2.4 2.1-3.8 4.2-10.2-.8-21.7-10.8-25.8l-23.2-9.5c-4.9-2-10.3-2-15.1 0-4.9 2-8.7 5.8-10.7 10.7-.3.7-.5 1.4-.7 2.1-.1.5-.2 1-.3 1.4l-11 .2c0-.1-.1-.2-.1-.4-1.7-5-5.2-9-10-11.4-4.7-2.3-10.1-2.7-15.1-1l-23.7 8.1c-6.1 2.1-10.9 7.1-12.6 13.3-1.1 3.9-1 7.9.3 11.8.3.9.7 1.8 1.2 2.7l-12.8 10.8c-3.6-2.3-7.7-3.5-12.1-3.2-8.3.5-15.4 6.3-17.7 14.3-.6 2.2-.9 4.4-.7 6.7l1.6 25c.7 10.7 9.8 18.8 20.4 18.4l3.5 9.6c-13.8 6.1-24.7 18.2-29.1 33.3-.6 2.3-1.2 4.6-1.5 7-4.5 31.9 13.2 52.6 33 56.6.1 0 .2 0 .3.1-.4 3.7-1.4 14.1-1.5 15.4-.2 3.3 2.1 6 5.2 6.3zm187.2-50c-9.6 16.5-28.5 28.6-46.1 19.7-5.4-2.7-11.7-1.2-14.6 3.4 2.6-4.8.8-11-4.2-14.4-16.4-10.9-15.4-33.2-5.8-49.8 11.3-19.5 36.4-26.1 55.8-14.8 19.5 11.4 26.2 36.4 14.9 55.9zm-10.1-69c.7-1.2 2.2-1.6 3.4-.9 1 .6 1.4 1.7 1.1 2.8l-.2.6c-.7 1.2-2.2 1.6-3.4.9-1.1-.7-1.5-2.2-.9-3.4zm-14.6-56.2l3.4 24.8c.2 1.2.1 2.3-.2 3.5-.6 2-1.8 3.6-3.4 4.7l.3-8c.1-3.1-2.3-5.7-5.5-5.8-2.7-.1-4.9 1.7-5.6 4.1-.1.4-.2.9-.2 1.4l-.2 6.7c-1-1.2-1.6-2.6-1.8-4.2l-3.4-24.8c-.1-.6-.1-1.2-.1-1.8l3.9 4.9c1.9 2.5 5.5 2.9 7.9.9 2.5-1.9 2.9-5.5.9-7.9l-4.5-5.7c4.1-.2 7.9 2.9 8.5 7.2zm-63.9-52c2.1-.9 4.4-.9 6.5 0l23.2 9.5c3.7 1.5 5.7 5.3 5.1 9.1l-2.7-3.5c-1.9-2.5-5.5-2.9-7.9-.9-1 .8-1.6 1.8-1.9 2.9-.5 1.7-.2 3.6 1 5.1l2.8 3.6c-.9-.1-1.9-.2-2.8-.6l-23.3-9.6c-.5-.2-1-.5-1.4-.8l4.3-.1c3.1-.1 5.6-2.6 5.5-5.8-.1-3.1-2.6-5.6-5.8-5.5l-6.7.1c.9-1.5 2.3-2.8 4.1-3.5zm-72.3 10.1l23.7-8.1c2.1-.7 4.4-.6 6.5.4.9.5 1.8 1.1 2.4 1.8l-4.5.1c-2.5.1-4.7 1.8-5.3 4.1-.2.5-.2 1.1-.2 1.7.1 3.1 2.6 5.6 5.8 5.5h4.3c-1 1.1-2.2 2-3.6 2.4l-23.7 8.1c-.6.2-1.1.3-1.7.4l4.1-3.4c2.4-2 2.8-5.6.8-8-2-2.4-5.5-2.8-8-.8l-6.3 5.2c-.5-3.9 1.8-8.1 5.7-9.4zm-45.3 69.7l-1.6-25c-.3-4.6 3.4-8.7 7.9-9h1.4l-3.8 3.1c-.9.8-1.5 1.7-1.8 2.8-.5 1.7-.2 3.7 1.1 5.2 2 2.4 5.5 2.8 8 .8l4.2-3.5 1.6 24.4c.1 1 0 1.9-.3 2.9-.2.8-.6 1.6-1 2.2l-2-5.5c-1.1-2.9-4.3-4.4-7.3-3.4-1.8.6-3 2.1-3.5 3.8-.3 1.1-.3 2.3.1 3.5l1.7 4.5c-2.6-1.2-4.5-3.7-4.7-6.8zm39.4 23.9c-.2-.3-.6-.9-.5-1.8.2-1.4 1.5-2.3 2.8-2.1.9.1 1.4.7 1.6 1 .2.3.6.9.5 1.8 0 .1 0 .2-.1.3-.3 1.2-1.5 1.9-2.7 1.7-.9-.1-1.4-.6-1.6-.9zm-46.1 46.9c3.1-22.3 23.9-37.9 46.2-34.7 10.8 1.5 20.4 7.2 26.9 15.9 6.6 8.7 9.3 19.5 7.8 30.3-3.5 25-20.4 36.8-35.3 35.6-6-.5-11.3 3.3-12.2 8.6.6-5.4-3.4-10.5-9.3-11.7-19.4-4-26.8-25.1-24.1-44z" id="Your_Icon_2_"/></svg>