<svg xmlns="http://www.w3.org/2000/svg" viewBox="0 0 255 255" enable-background="new 0 0 255 255"><style type="text/css">.st0{fill:#BB9D6E;}</style><path class="st0" d="M189.8 126.1c11.6-3.5 23.6-8.2 35.2-14.5 18.5-10.8 28 .4 21.1 17.3-5.9 16-37 45.8-64.2 52.6-10.4-7.3-30.8-12.4-54.4-12.5-23.6.1-44 5.1-54.4 12.5-27.1-6.8-58.3-36.6-64.1-52.6-6.9-16.9 2.6-28.1 21.1-17.3 11.6 6.3 23.6 11 35.2 14.5 24.9 7.5 47.7 9.3 59.6 9.3h6.6c11.8-.1 34.1-2.1 58.3-9.3z"/><path class="st0" d="M156.2 50.8c9.7 4.8 25.4 50.4 31.6 69.1-23.4 6.8-44.7 8.6-56.3 8.8h-6.6c-11.6 0-33.5-1.8-57.6-8.8 6.1-18.7 21.9-64.2 31.6-69.1 11.1-5.6 20.6 3.6 28.3 4.5h-1.5c.6.1 1.2.1 1.9 0 .6.1 1.3 0 1.9 0h-1.5c7.6-.9 17.1-10.1 28.2-4.5zm-3.8 35.3c0-2-1.6-3.7-3.7-3.7-1.9 0-3.4 1.4-3.6 3.2l-11.2-1.6-5-10.1c1.3-.5 2.3-1.9 2.3-3.4 0-2-1.6-3.7-3.7-3.7-2 0-3.7 1.6-3.7 3.7 0 1.5 1 2.9 2.3 3.4l-5 10.1-11.3 1.6c-.2-1.8-1.8-3.2-3.6-3.2-2 0-3.7 1.6-3.7 3.7 0 2 1.6 3.7 3.7 3.7 1.2 0 2.3-.6 3-1.6l8 7.8-2 11.8c-.4-.2-.9-.3-1.5-.3-2 0-3.7 1.6-3.7 3.7s1.6 3.7 3.7 3.7c2 0 3.7-1.6 3.7-3.7 0-.8-.2-1.5-.6-2.1l10.7-5.6 10.7 5.6c-.4.6-.6 1.3-.6 2.1 0 2 1.6 3.7 3.7 3.7 2 0 3.7-1.6 3.7-3.7s-1.6-3.7-3.7-3.7c-.5 0-1 .1-1.4.3l-2-11.7 8-7.8c.7.9 1.8 1.5 3 1.5 1.9 0 3.5-1.6 3.5-3.7z" id="XMLID_1_"/></svg>