<svg xmlns="http://www.w3.org/2000/svg" viewBox="0 0 255 255" enable-background="new 0 0 255 255"><style type="text/css">.st0{fill:#87724F;}</style><path class="st0" d="M224.6 174c-1.7 0-3.2.6-4.6 1.4l-28.8-48.5 28.8-48.5c1.4.8 2.9 1.4 4.6 1.4 5 0 9.2-4.1 9.2-9.2s-4.1-9.2-9.2-9.2-9.2 4.1-9.2 9.2v.1l-56.3.7-27.6-49.2c2.8-1.6 4.7-4.4 4.7-7.9 0-5.1-4.1-9.2-9.2-9.2-5 0-9.2 4.1-9.2 9.2 0 3.4 2 6.3 4.7 7.9l-27.3 49.3-56.3-.7v-.1c0-5.1-4.1-9.2-9.2-9.2s-9.2 4.1-9.2 9.2 4.1 9.2 9.2 9.2c1.7 0 3.2-.6 4.6-1.4l28.8 48.5-28.8 48.5c-1.4-.8-2.9-1.4-4.6-1.4-5.1 0-9.2 4.1-9.2 9.2s4.1 9.2 9.2 9.2c5 0 9.2-4.1 9.2-9.2v-.1l56.3-.7 27.6 49.2c-2.8 1.6-4.7 4.4-4.7 7.9 0 5.1 4.1 9.2 9.2 9.2s9.2-4.1 9.2-9.2c0-3.4-2-6.3-4.7-7.9l27.6-49.2 56.3.7v.1c0 5.1 4.1 9.2 9.2 9.2 5 0 9.2-4.1 9.2-9.2-.3-5.2-4.4-9.3-9.5-9.3z" id="Your_Icon_8_"/></svg>